PathFileType	4	(X/Y/Z)	c:/Users/goper/Files/vsCode/490R/osim_files/A04/A04_Static02.trc
DataRate	CameraRate	NumFrames	NumMarkers	Units                	OrigDataRate	OrigDataStartFrame	OrigNumFrames
120.00	120.00	4	36	mm	120.0	1	855
                Frame#	Time	LPSIS			LASIS			LTH1			LTH2			LTH3			LTH4			LLFE			LMFE			LSH1			LSH2			LSH3			LSH4			LLMAL			LMMAL			LCAL			LMTP5			LTOE			LMTP1			RPSIS			RASIS			RTH1			RTH2			RTH3			RTH4			RLFE			RMFE			RSH1			RSH2			RSH3			RSH4			RLMAL			RMMAL			RCAL			RMTP1			RTOE			RMTP5		
		X1	Y1	Z1	X2	Y2	Z2	X3	Y3	Z3	X4	Y4	Z4	X5	Y5	Z5	X6	Y6	Z6	X7	Y7	Z7	X8	Y8	Z8	X9	Y9	Z9	X10	Y10	Z10	X11	Y11	Z11	X12	Y12	Z12	X13	Y13	Z13	X14	Y14	Z14	X15	Y15	Z15	X16	Y16	Z16	X17	Y17	Z17	X18	Y18	Z18	X19	Y19	Z19	X20	Y20	Z20	X21	Y21	Z21	X22	Y22	Z22	X23	Y23	Z23	X24	Y24	Z24	X25	Y25	Z25	X26	Y26	Z26	X27	Y27	Z27	X28	Y28	Z28	X29	Y29	Z29	X30	Y30	Z30	X31	Y31	Z31	X32	Y32	Z32	X33	Y33	Z33	X34	Y34	Z34	X35	Y35	Z35	X36	Y36	Z36

1	0.00000	-260.04001	1056.21350	389.27484	-39.69156	1013.69965	298.13202	-165.12271	711.54993	274.51425	-166.42937	667.58105	272.94965	-104.04806	706.11224	274.26932	-112.55898	662.18665	272.94571	-159.07240	537.95685	275.68820	-128.87265	525.70239	412.07227	-207.72812	442.50497	271.75238	-207.17032	398.79974	270.15509	-145.70511	435.35910	276.10916	-154.48114	392.70111	275.51801	-272.85672	116.29107	294.37537	-241.95236	115.53227	374.45361	-333.58728	76.39888	354.53812	-141.01558	60.15830	242.11832	-85.08755	72.18369	296.75534	-99.32150	55.97630	342.82983	-257.68069	1048.13159	494.61963	-31.46788	1036.84900	586.15448	-155.40282	732.43073	624.78027	-149.16992	690.59570	622.18018	-93.37530	734.88452	632.35199	-95.76401	687.86255	626.77264	-104.09190	550.54517	603.51489	-92.43768	544.47705	485.51413	-195.38976	346.91418	596.79761	-197.76541	299.68048	589.90326	-134.85236	337.67719	603.43964	-145.92169	291.52563	599.84882	-200.70013	104.72985	598.24182	-169.43333	110.92457	465.42017	-268.88498	61.57477	517.52948	-43.97807	53.88300	489.77045	-21.61211	74.59800	537.60992	-58.39570	48.55583	608.83459
2	0.00833	-259.97998	1056.18628	389.24725	-39.67364	1013.70764	298.13434	-165.12589	711.52789	274.52634	-166.40131	667.58734	272.92188	-104.05176	706.12622	274.28366	-112.57035	662.16852	272.97058	-159.07054	537.94055	275.68924	-128.86685	525.70624	412.08215	-207.70958	442.47168	271.72983	-207.15417	398.78647	270.13992	-145.71931	435.37668	276.10321	-154.48265	392.67297	275.53531	-272.86172	116.30537	294.33698	-241.95279	115.53753	374.43872	-333.63055	76.45567	354.46277	-141.03079	60.17924	242.09273	-85.08355	72.22897	296.69968	-99.27586	56.06209	342.78210	-257.64359	1048.12976	494.64954	-31.36521	1036.90161	586.11328	-155.38507	732.51447	624.72931	-149.20424	690.65985	622.14734	-93.34723	734.96533	632.31183	-95.71280	687.92834	626.73615	-104.07947	550.62433	603.47748	-92.44632	544.47437	485.51999	-195.41670	346.94583	596.76361	-197.84508	299.73444	589.84045	-134.81142	337.75504	603.39893	-145.87718	291.60104	599.80444	-200.72675	104.78965	598.21063	-169.46162	110.89890	465.42834	-268.92548	61.66191	517.42468	-44.07745	53.64221	489.94971	-21.59193	74.67004	537.57227	-58.36409	48.61600	608.78790
3	0.01667	-259.93628	1056.20325	389.22836	-39.66125	1013.68646	298.13617	-165.11046	711.52637	274.50974	-166.42099	667.55280	272.93164	-104.05013	706.10223	274.27661	-112.58173	662.16162	272.96173	-159.09277	537.91394	275.68582	-128.88617	525.70972	412.08698	-207.73004	442.46643	271.75311	-207.14107	398.77039	270.13043	-145.72134	435.33597	276.11658	-154.51007	392.64233	275.53265	-272.87326	116.28854	294.32602	-241.95067	115.52996	374.45035	-333.62476	76.40640	354.45715	-141.04454	60.13332	242.10680	-85.11250	72.20225	296.70642	-99.29663	56.03535	342.81738	-257.59949	1048.13232	494.65012	-31.36217	1036.86096	586.13031	-155.36438	732.48151	624.72748	-149.18489	690.62610	622.16766	-93.33895	734.96210	632.38208	-95.70750	687.92810	626.74615	-104.07452	550.61865	603.49921	-92.45112	544.45844	485.51404	-195.41891	346.91583	596.78204	-197.82513	299.71552	589.85419	-134.85793	337.72708	603.42261	-145.91118	291.57376	599.82379	-200.76921	104.76979	598.22589	-169.46332	110.85848	465.42523	-268.91550	61.63733	517.44037	-43.98927	53.92421	489.70523	-21.61060	74.62321	537.58087	-58.39976	48.59188	608.80951
4	0.02500	-259.93930	1056.24829	389.27982	-39.66949	1013.69696	298.11658	-165.11102	711.49457	274.51337	-166.42087	667.54132	272.94528	-104.04525	706.09235	274.26672	-112.59594	662.14130	272.95770	-159.11124	537.90558	275.69174	-128.87405	525.74377	412.08859	-208.04482	442.23569	272.10214	-207.13191	398.75079	270.13968	-145.69051	435.33252	276.09213	-154.51234	392.64444	275.51266	-272.90277	116.29912	294.31683	-241.91643	115.53327	374.46786	-333.60260	76.32353	354.52188	-141.10143	60.05850	242.15146	-85.12600	72.14046	296.72263	-99.35352	55.91927	342.85324	-257.58856	1048.11597	494.68188	-31.41281	1036.77625	586.16302	-155.30833	732.38287	624.78943	-149.14307	690.54230	622.21143	-93.32089	734.88550	632.49805	-95.68108	687.85730	626.78931	-104.09647	550.52368	603.54529	-92.46175	544.43451	485.49393	-195.37654	346.84818	596.83057	-197.78116	299.63461	589.90912	-134.87376	337.65741	603.46075	-145.93263	291.49939	599.87903	-200.78641	104.71329	598.27435	-169.45563	110.86297	465.41913	-268.88437	61.47384	517.51947	-44.07235	53.61931	489.91290	-21.67061	74.51938	537.63849	-58.43344	48.50138	608.83685
